<svg xmlns="http://www.w3.org/2000/svg" width="21.387" height="21" viewBox="0 0 21.387 21">
  <g id="Contact_icon" data-name="Contact icon" transform="translate(-0.307 47.5)">
    <g id="Group_779" data-name="Group 779" transform="translate(1 -39.826)">
      <path id="Path_894" data-name="Path 894" d="M16.522,0,20,2.391v9.131a1.281,1.281,0,0,1-1.3,1.3H1.3a1.281,1.281,0,0,1-1.3-1.3V2.391L3.478,0" fill="none" stroke="#00c4ff" stroke-linecap="round" stroke-linejoin="round" stroke-width="1"/>
    </g>
    <g id="Group_780" data-name="Group 780" transform="translate(3.609 -33.087)">
      <path id="Path_895" data-name="Path 895" d="M0,3.478,4.348,0h6.087l4.348,3.478" fill="none" stroke="#00c4ff" stroke-linecap="round" stroke-linejoin="round" stroke-width="1"/>
    </g>
    <g id="Group_781" data-name="Group 781" transform="translate(15.783 -37.435)">
      <path id="Path_896" data-name="Path 896" d="M5.217,0,0,3.478" fill="none" stroke="#00c4ff" stroke-linecap="round" stroke-linejoin="round" stroke-width="1"/>
    </g>
    <g id="Group_782" data-name="Group 782" transform="translate(1 -37.435)">
      <path id="Path_897" data-name="Path 897" d="M0,0,5.217,3.478" fill="none" stroke="#00c4ff" stroke-linecap="round" stroke-linejoin="round" stroke-width="1"/>
    </g>
    <g id="Group_783" data-name="Group 783" transform="translate(4.478 -47)">
      <path id="Path_898" data-name="Path 898" d="M13.044,11.87V0H0V11.87" fill="none" stroke="#00c4ff" stroke-linecap="round" stroke-linejoin="round" stroke-width="1"/>
    </g>
    <g id="Group_784" data-name="Group 784" transform="translate(7.087 -44.391)">
      <path id="Path_899" data-name="Path 899" d="M0,.5H1.739" transform="translate(0 -0.5)" fill="none" stroke="#00c4ff" stroke-linecap="round" stroke-linejoin="round" stroke-width="1"/>
    </g>
    <g id="Group_785" data-name="Group 785" transform="translate(8.826 -41.783)">
      <path id="Path_900" data-name="Path 900" d="M0,.5H6.087" transform="translate(0 -0.5)" fill="none" stroke="#00c4ff" stroke-linecap="round" stroke-linejoin="round" stroke-width="1"/>
    </g>
    <g id="Group_786" data-name="Group 786" transform="translate(7.087 -39.174)">
      <path id="Path_901" data-name="Path 901" d="M0,.5H7.826" transform="translate(0 -0.5)" fill="none" stroke="#00c4ff" stroke-linecap="round" stroke-linejoin="round" stroke-width="1"/>
    </g>
    <g id="Group_787" data-name="Group 787" transform="translate(7.087 -36.565)">
      <path id="Path_902" data-name="Path 902" d="M0,.5H7.826" transform="translate(0 -0.5)" fill="none" stroke="#00c4ff" stroke-linecap="round" stroke-linejoin="round" stroke-width="1"/>
    </g>
  </g>
</svg>
